<?xml version="1.0" encoding="UTF-8" standalone="no"?>
<svg
   version="1.1"
   x="0px"
   y="0px"
   viewBox="0 0 67.730003 24.511833"
   xml:space="preserve"
   id="svg13"
   width="67.730003"
   height="24.511833"
   xmlns="http://www.w3.org/2000/svg"
   xmlns:svg="http://www.w3.org/2000/svg"><defs
     id="defs13" /><g
     id="g2"
     transform="translate(-14.35,-42.528166)"><path
       d="m 14.99,51.23 c 0,0 4.16,-1.37 11.48,-6.48 3.81,-2.52 5.18,-2.52 8.77,-0.53 2.44,1.14 6.45,3.81 6.45,3.81 v 7.93 c 0,0 -0.88,1.22 -3.4,-1.75 -1.83,-1.6 -4.73,-6.25 -7.16,-6.02 -2.43,0.23 -2.59,0.61 -7.32,3.05 -3.67,1.74 -7.96,0.44 -8.82,-0.01 z"
       id="path1" /><path
       d="m 41.07,56.45 c -0.81,0 -1.81,-0.7 -2.98,-2.09 -0.52,-0.46 -1.17,-1.2 -1.85,-2 -1.56,-1.82 -3.5,-4.1 -5.1,-3.94 -1.85,0.17 -2.34,0.43 -4.69,1.69 -0.67,0.36 -1.49,0.8 -2.53,1.33 -3.93,1.88 -8.34,0.37 -9.05,0 l -0.52,-0.27 0.56,-0.18 c 0.04,-0.01 4.22,-1.43 11.42,-6.45 3.84,-2.54 5.28,-2.62 9.03,-0.55 2.41,1.13 6.42,3.79 6.46,3.82 l 0.11,0.07 v 8.14 l -0.05,0.07 c -0.02,0.03 -0.25,0.33 -0.76,0.35 -0.01,0.01 -0.03,0.01 -0.05,0.01 z M 31.3,47.92 c 1.79,0 3.67,2.18 5.33,4.12 0.67,0.78 1.3,1.51 1.82,1.97 1.43,1.69 2.26,1.94 2.63,1.94 0,0 0.01,0 0.01,0 0.18,0 0.29,-0.06 0.35,-0.1 v -7.69 c -0.66,-0.44 -4.13,-2.7 -6.3,-3.72 -3.58,-1.98 -4.85,-1.9 -8.52,0.52 -5.69,3.97 -9.52,5.71 -10.93,6.28 1.42,0.48 4.93,1.25 8.02,-0.23 1.03,-0.53 1.85,-0.97 2.52,-1.33 2.37,-1.26 2.93,-1.56 4.88,-1.75 0.05,-0.01 0.12,-0.01 0.19,-0.01 z"
       id="path2" /></g><g
     id="g4"
     transform="translate(-14.35,-42.528166)"><path
       d="m 68.43,51.23 c 0,0 -4.16,-1.37 -11.48,-6.48 -3.81,-2.52 -5.18,-2.52 -8.77,-0.53 -2.44,1.14 -6.45,3.81 -6.45,3.81 v 7.93 c 0,0 0.88,1.22 3.4,-1.75 1.83,-1.6 4.73,-6.25 7.16,-6.02 2.44,0.23 2.59,0.61 7.32,3.05 3.67,1.74 7.96,0.44 8.82,-0.01 z"
       id="path3" /><path
       d="m 42.35,56.45 c -0.02,0 -0.03,0 -0.05,0 -0.51,-0.02 -0.73,-0.32 -0.76,-0.35 l -0.05,-0.07 v -8.14 l 0.11,-0.07 c 0.04,-0.03 4.05,-2.69 6.48,-3.83 3.74,-2.07 5.17,-1.98 9.01,0.55 7.2,5.02 11.38,6.44 11.42,6.45 l 0.56,0.18 -0.52,0.27 c -0.71,0.37 -5.12,1.88 -9.04,0 -1.05,-0.54 -1.87,-0.98 -2.54,-1.34 -2.35,-1.25 -2.84,-1.52 -4.69,-1.69 -1.61,-0.16 -3.54,2.12 -5.1,3.94 -0.68,0.79 -1.32,1.54 -1.87,2.02 -1.16,1.38 -2.16,2.08 -2.96,2.08 z m -0.36,-0.61 c 0.06,0.04 0.17,0.1 0.35,0.1 0.39,0 1.19,-0.24 2.61,-1.91 0.55,-0.48 1.18,-1.22 1.85,-2 1.72,-2.01 3.68,-4.28 5.53,-4.11 1.95,0.18 2.51,0.48 4.88,1.75 0.67,0.36 1.49,0.79 2.53,1.33 3.09,1.48 6.6,0.71 8.01,0.23 -1.41,-0.57 -5.25,-2.31 -10.94,-6.28 -3.66,-2.42 -4.93,-2.49 -8.5,-0.52 -2.18,1.02 -5.65,3.29 -6.32,3.73 z"
       id="path4" /></g><g
     id="g6"
     transform="translate(-14.35,-42.528166)"><path
       d="m 39.86,55.34 c 0,0 1.95,1.68 3.56,0"
       id="path5" /><path
       d="m 41.78,56.59 c -0.93,0 -1.78,-0.47 -2.25,-0.87 l 0.65,-0.76 c 0.16,0.14 1.64,1.33 2.87,0.03 l 0.72,0.69 c -0.62,0.67 -1.33,0.91 -1.99,0.91 z"
       id="path6" /></g><g
     id="g8"
     transform="translate(-14.35,-42.528166)"><path
       d="m 48.44,63.53 c 0,0 2.57,-0.85 7.09,-4 2.35,-1.55 3.2,-1.55 5.41,-0.33 1.51,0.71 3.98,2.35 3.98,2.35 v 4.89 c 0,0 -0.55,0.75 -2.1,-1.08 -1.13,-0.99 -2.92,-3.86 -4.42,-3.72 -1.51,0.14 -1.6,0.38 -4.52,1.88 -2.26,1.09 -4.91,0.3 -5.44,0.01 z"
       id="path7" /><path
       d="m 64.54,66.85 c -0.53,0 -1.17,-0.44 -1.91,-1.32 -0.32,-0.28 -0.72,-0.74 -1.14,-1.23 -0.95,-1.11 -2.15,-2.5 -3.07,-2.4 -1.12,0.11 -1.39,0.25 -2.86,1.03 -0.41,0.22 -0.92,0.49 -1.56,0.82 -2.46,1.18 -5.23,0.23 -5.67,0 l -0.52,-0.27 0.56,-0.18 c 0.03,-0.01 2.6,-0.88 7.02,-3.97 2.39,-1.58 3.34,-1.63 5.68,-0.34 1.49,0.7 3.9,2.3 4,2.36 l 0.11,0.07 v 5.11 l -0.05,0.07 c -0.02,0.02 -0.19,0.24 -0.54,0.26 -0.02,-0.01 -0.04,-0.01 -0.05,-0.01 z M 58.5,61.39 c 1.15,0 2.32,1.37 3.36,2.58 0.41,0.48 0.8,0.93 1.12,1.21 0.86,1.02 1.34,1.17 1.55,1.17 0.06,0 0.1,-0.01 0.13,-0.02 v -4.64 c -0.5,-0.33 -2.55,-1.66 -3.84,-2.26 -2.17,-1.2 -2.94,-1.16 -5.17,0.31 -3.26,2.28 -5.5,3.35 -6.52,3.79 0.98,0.28 2.91,0.6 4.63,-0.22 0.63,-0.33 1.14,-0.6 1.55,-0.82 1.48,-0.79 1.83,-0.98 3.05,-1.09 0.06,0 0.1,-0.01 0.14,-0.01 z"
       id="path8" /></g><g
     id="g10"
     transform="translate(-14.35,-42.528166)"><path
       d="m 81.43,63.53 c 0,0 -2.57,-0.85 -7.09,-4 -2.35,-1.55 -3.2,-1.55 -5.41,-0.33 -1.51,0.71 -3.98,2.35 -3.98,2.35 v 4.89 c 0,0 0.55,0.75 2.1,-1.08 1.13,-0.99 2.92,-3.86 4.42,-3.72 1.51,0.14 1.6,0.38 4.52,1.88 2.26,1.09 4.91,0.3 5.44,0.01 z"
       id="path9" /><path
       d="m 65.33,66.85 c -0.01,0 -0.02,0 -0.03,0 -0.36,-0.01 -0.52,-0.23 -0.54,-0.26 l -0.05,-0.07 v -5.11 l 0.11,-0.07 c 0.1,-0.07 2.51,-1.67 4.01,-2.37 2.32,-1.28 3.27,-1.23 5.66,0.35 4.43,3.09 7,3.96 7.03,3.97 l 0.56,0.18 -0.52,0.27 c -0.44,0.24 -3.21,1.18 -5.67,0 -0.65,-0.34 -1.16,-0.61 -1.57,-0.83 -1.47,-0.79 -1.74,-0.93 -2.86,-1.03 -0.94,-0.1 -2.12,1.29 -3.07,2.4 -0.42,0.49 -0.82,0.96 -1.17,1.26 -0.72,0.87 -1.37,1.31 -1.89,1.31 z M 65.2,66.33 c 0.03,0.01 0.07,0.03 0.13,0.02 0.21,0 0.69,-0.16 1.53,-1.15 0.34,-0.3 0.73,-0.76 1.14,-1.23 1.08,-1.26 2.29,-2.68 3.5,-2.57 1.22,0.12 1.57,0.3 3.05,1.09 0.41,0.22 0.92,0.49 1.56,0.82 1.72,0.82 3.65,0.5 4.62,0.22 -1.02,-0.43 -3.26,-1.51 -6.53,-3.79 -2.22,-1.46 -2.99,-1.51 -5.15,-0.32 -1.31,0.61 -3.35,1.94 -3.85,2.27 z"
       id="path10" /></g><g
     id="g12"
     transform="translate(-14.35,-42.528166)"><path
       d="m 63.79,66.07 c 0,0 1.21,1.04 2.2,0"
       id="path11" /><path
       d="m 64.98,67.04 c -0.63,0 -1.2,-0.31 -1.52,-0.59 l 0.65,-0.76 c 0.14,0.12 0.89,0.69 1.51,0.04 l 0.72,0.69 c -0.42,0.45 -0.91,0.62 -1.36,0.62 z"
       id="path12" /></g></svg>
